<?xml version="1.0" standalone="no"?>
<!DOCTYPE svg PUBLIC "-//W3C//DTD SVG 20010904//EN"
 "http://www.w3.org/TR/2001/REC-SVG-20010904/DTD/svg10.dtd">
<svg version="1.0" xmlns="http://www.w3.org/2000/svg"
 width="1077.000000pt" height="1077.000000pt" viewBox="0 0 1077.000000 1077.000000"
 preserveAspectRatio="xMidYMid meet">

<g transform="translate(0.000000,1077.000000) scale(0.100000,-0.100000)"
fill="#000000" stroke="none">
<path d="M5067 10759 c-438 -24 -1003 -135 -1432 -282 -425 -145 -909 -388
-1285 -645 -475 -324 -913 -741 -1262 -1202 -547 -723 -905 -1584 -1032 -2482
-43 -301 -51 -418 -51 -763 0 -345 8 -462 51 -763 127 -898 485 -1759 1032
-2482 295 -389 663 -757 1052 -1052 723 -547 1584 -905 2482 -1032 301 -43
418 -51 763 -51 345 0 462 8 763 51 898 127 1759 485 2482 1032 389 295 757
663 1052 1052 547 723 905 1584 1032 2482 43 301 51 418 51 763 0 425 -29 717
-110 1104 -139 661 -419 1328 -790 1881 -542 806 -1274 1442 -2140 1861 -825
398 -1733 578 -2658 528z m-1657 -2381 c320 -184 1651 -954 2115 -1223 259
-150 808 -467 1220 -705 413 -238 802 -463 865 -500 63 -37 309 -179 545 -315
237 -136 436 -253 443 -259 9 -9 -103 -79 -505 -311 -285 -164 -844 -488
-1243 -718 -399 -231 -959 -555 -1245 -720 -286 -165 -935 -540 -1442 -833
-507 -294 -925 -534 -928 -534 -3 0 -5 1400 -5 3111 0 1710 3 3108 8 3106 4
-2 81 -47 172 -99z"/>
</g>
</svg>
